<mxfile host="Electron" modified="2023-10-04T11:16:28.381Z" agent="5.0 (Windows NT 10.0; Win64; x64) AppleWebKit/537.36 (KHTML, like Gecko) draw.io/20.3.0 Chrome/104.0.5112.114 Electron/20.1.3 Safari/537.36" etag="W_xRg_a4InrxaEsegmCv" compressed="false" version="20.3.0" type="device">
  <diagram name="PE015A" id="1CP9VX86ncTdAmcYDIcw">
    <mxGraphModel dx="782" dy="531" grid="1" gridSize="2" guides="1" tooltips="1" connect="1" arrows="1" fold="1" page="1" pageScale="1" pageWidth="1169" pageHeight="827" math="0" shadow="0">
      <root>
        <mxCell id="22vkG-h5v2N9dKBLQ-ZE-0" />
        <object label="Symbol" Width="48" Height="12" UoM="mm" id="22vkG-h5v2N9dKBLQ-ZE-138">
          <mxCell style="locked=1;" parent="22vkG-h5v2N9dKBLQ-ZE-0" />
        </object>
        <mxCell id="8YAzbTfXJD2NZginxdfb-0" value="" style="rounded=0;whiteSpace=wrap;html=1;fillColor=none;" parent="22vkG-h5v2N9dKBLQ-ZE-138" vertex="1">
          <mxGeometry x="256" y="336" width="16" height="192" as="geometry" />
        </mxCell>
        <mxCell id="8YAzbTfXJD2NZginxdfb-1" value="" style="rounded=0;whiteSpace=wrap;html=1;fillColor=none;" parent="22vkG-h5v2N9dKBLQ-ZE-138" vertex="1">
          <mxGeometry x="272" y="368" width="736" height="128" as="geometry" />
        </mxCell>
        <mxCell id="8YAzbTfXJD2NZginxdfb-2" value="" style="rounded=0;whiteSpace=wrap;html=1;fillColor=none;" parent="22vkG-h5v2N9dKBLQ-ZE-138" vertex="1">
          <mxGeometry x="1008" y="336" width="16" height="192" as="geometry" />
        </mxCell>
        <mxCell id="8YAzbTfXJD2NZginxdfb-89" value="" style="endArrow=none;html=1;rounded=0;entryX=0.926;entryY=0.016;entryDx=0;entryDy=0;entryPerimeter=0;" parent="22vkG-h5v2N9dKBLQ-ZE-138" edge="1">
          <mxGeometry width="50" height="50" relative="1" as="geometry">
            <mxPoint x="903" y="496" as="sourcePoint" />
            <mxPoint x="956.5360000000001" y="370.048" as="targetPoint" />
          </mxGeometry>
        </mxCell>
        <mxCell id="8YAzbTfXJD2NZginxdfb-90" value="" style="endArrow=none;html=1;rounded=0;" parent="22vkG-h5v2N9dKBLQ-ZE-138" edge="1">
          <mxGeometry width="50" height="50" relative="1" as="geometry">
            <mxPoint x="1007" y="496" as="sourcePoint" />
            <mxPoint x="957" y="368" as="targetPoint" />
          </mxGeometry>
        </mxCell>
        <mxCell id="8YAzbTfXJD2NZginxdfb-107" value="" style="endArrow=none;html=1;rounded=0;entryX=0.926;entryY=0.016;entryDx=0;entryDy=0;entryPerimeter=0;" parent="22vkG-h5v2N9dKBLQ-ZE-138" edge="1">
          <mxGeometry width="50" height="50" relative="1" as="geometry">
            <mxPoint x="797" y="496" as="sourcePoint" />
            <mxPoint x="850.5360000000001" y="370.048" as="targetPoint" />
          </mxGeometry>
        </mxCell>
        <mxCell id="8YAzbTfXJD2NZginxdfb-108" value="" style="endArrow=none;html=1;rounded=0;" parent="22vkG-h5v2N9dKBLQ-ZE-138" edge="1">
          <mxGeometry width="50" height="50" relative="1" as="geometry">
            <mxPoint x="902" y="496" as="sourcePoint" />
            <mxPoint x="851" y="368" as="targetPoint" />
          </mxGeometry>
        </mxCell>
        <mxCell id="8YAzbTfXJD2NZginxdfb-109" value="" style="endArrow=none;html=1;rounded=0;entryX=0.926;entryY=0.016;entryDx=0;entryDy=0;entryPerimeter=0;" parent="22vkG-h5v2N9dKBLQ-ZE-138" edge="1">
          <mxGeometry width="50" height="50" relative="1" as="geometry">
            <mxPoint x="690" y="496" as="sourcePoint" />
            <mxPoint x="743.5360000000001" y="370.048" as="targetPoint" />
          </mxGeometry>
        </mxCell>
        <mxCell id="8YAzbTfXJD2NZginxdfb-110" value="" style="endArrow=none;html=1;rounded=0;" parent="22vkG-h5v2N9dKBLQ-ZE-138" edge="1">
          <mxGeometry width="50" height="50" relative="1" as="geometry">
            <mxPoint x="796" y="496" as="sourcePoint" />
            <mxPoint x="744" y="368" as="targetPoint" />
          </mxGeometry>
        </mxCell>
        <mxCell id="8YAzbTfXJD2NZginxdfb-111" value="" style="endArrow=none;html=1;rounded=0;entryX=0.926;entryY=0.016;entryDx=0;entryDy=0;entryPerimeter=0;" parent="22vkG-h5v2N9dKBLQ-ZE-138" edge="1">
          <mxGeometry width="50" height="50" relative="1" as="geometry">
            <mxPoint x="588" y="496" as="sourcePoint" />
            <mxPoint x="638.5360000000001" y="370.048" as="targetPoint" />
          </mxGeometry>
        </mxCell>
        <mxCell id="8YAzbTfXJD2NZginxdfb-112" value="" style="endArrow=none;html=1;rounded=0;" parent="22vkG-h5v2N9dKBLQ-ZE-138" edge="1">
          <mxGeometry width="50" height="50" relative="1" as="geometry">
            <mxPoint x="690" y="496" as="sourcePoint" />
            <mxPoint x="639" y="368" as="targetPoint" />
          </mxGeometry>
        </mxCell>
        <mxCell id="8YAzbTfXJD2NZginxdfb-115" value="" style="endArrow=none;html=1;rounded=0;entryX=0.926;entryY=0.016;entryDx=0;entryDy=0;entryPerimeter=0;" parent="22vkG-h5v2N9dKBLQ-ZE-138" edge="1">
          <mxGeometry width="50" height="50" relative="1" as="geometry">
            <mxPoint x="483" y="496" as="sourcePoint" />
            <mxPoint x="536.5360000000001" y="370.048" as="targetPoint" />
          </mxGeometry>
        </mxCell>
        <mxCell id="8YAzbTfXJD2NZginxdfb-116" value="" style="endArrow=none;html=1;rounded=0;" parent="22vkG-h5v2N9dKBLQ-ZE-138" edge="1">
          <mxGeometry width="50" height="50" relative="1" as="geometry">
            <mxPoint x="588" y="496" as="sourcePoint" />
            <mxPoint x="537" y="368" as="targetPoint" />
          </mxGeometry>
        </mxCell>
        <mxCell id="8YAzbTfXJD2NZginxdfb-117" value="" style="endArrow=none;html=1;rounded=0;entryX=0.926;entryY=0.016;entryDx=0;entryDy=0;entryPerimeter=0;" parent="22vkG-h5v2N9dKBLQ-ZE-138" edge="1">
          <mxGeometry width="50" height="50" relative="1" as="geometry">
            <mxPoint x="377" y="496" as="sourcePoint" />
            <mxPoint x="430.53600000000006" y="370.048" as="targetPoint" />
          </mxGeometry>
        </mxCell>
        <mxCell id="8YAzbTfXJD2NZginxdfb-118" value="" style="endArrow=none;html=1;rounded=0;" parent="22vkG-h5v2N9dKBLQ-ZE-138" edge="1">
          <mxGeometry width="50" height="50" relative="1" as="geometry">
            <mxPoint x="484" y="496" as="sourcePoint" />
            <mxPoint x="431" y="368" as="targetPoint" />
          </mxGeometry>
        </mxCell>
        <mxCell id="8YAzbTfXJD2NZginxdfb-119" value="" style="endArrow=none;html=1;rounded=0;entryX=0.926;entryY=0.016;entryDx=0;entryDy=0;entryPerimeter=0;" parent="22vkG-h5v2N9dKBLQ-ZE-138" edge="1">
          <mxGeometry width="50" height="50" relative="1" as="geometry">
            <mxPoint x="272" y="496" as="sourcePoint" />
            <mxPoint x="325.53600000000006" y="370.048" as="targetPoint" />
          </mxGeometry>
        </mxCell>
        <mxCell id="8YAzbTfXJD2NZginxdfb-120" value="" style="endArrow=none;html=1;rounded=0;" parent="22vkG-h5v2N9dKBLQ-ZE-138" edge="1">
          <mxGeometry width="50" height="50" relative="1" as="geometry">
            <mxPoint x="378" y="496" as="sourcePoint" />
            <mxPoint x="326" y="368" as="targetPoint" />
          </mxGeometry>
        </mxCell>
        <mxCell id="22vkG-h5v2N9dKBLQ-ZE-135" value="Label" style="locked=1;" parent="22vkG-h5v2N9dKBLQ-ZE-0" />
        <object label="%LabelLines%&amp;nbsp; &amp;nbsp; &amp;nbsp; &amp;nbsp; &amp;nbsp; &amp;nbsp;%LabelIndex%" placeholders="1" LabelLines="1" LabelIndex="A" id="8YAzbTfXJD2NZginxdfb-60">
          <mxCell style="rounded=0;whiteSpace=wrap;html=1;fillColor=none;strokeColor=#FF0000;fontColor=#FF0000;fontSize=10;align=left;" parent="22vkG-h5v2N9dKBLQ-ZE-135" vertex="1">
            <mxGeometry x="616" y="336" width="80" height="16" as="geometry" />
          </mxCell>
        </object>
        <mxCell id="22vkG-h5v2N9dKBLQ-ZE-124" value="Connection" style="" parent="22vkG-h5v2N9dKBLQ-ZE-0" />
        <object label="Connection" PipingConnector="Y" LabelConnector="N" SignalConnector="N" Direction="180" AuxiliaryConnector="N" id="idT_if2Ht7NSnfdT7zC2-0">
          <mxCell style="vsdxID=1407;fillColor=none;gradientColor=none;shape=stencil(rVFbDsIgEDwNnyQU4glqvcfGblsilmZBS28vZGMsxg9j/JvZmX1kR5g2TLCg0CpE8hdcbR8nYY5CaztPSDZmJEwnTDt4wpH8be6ZL1CcBV39vUxI3KdKh1YbswPTEzuBzlmiVGmKau9zUKM+jlJJQrJBko8QrZ+rrQ5oRJnXyMHBWElhRVx25ebnw/5zVvPFWRm83jxY5zilvf4eSy5xpKZ7AA==);strokeColor=#00ff00;strokeWidth=1;points=[[0.5,0.5,0,0,0]];labelBackgroundColor=none;rounded=0;html=1;whiteSpace=wrap;aspect=fixed;noLabel=1;snapToPoint=1;container=0;fontSize=16;" vertex="1" parent="22vkG-h5v2N9dKBLQ-ZE-124">
            <mxGeometry x="250" y="425" width="12" height="12" as="geometry" />
          </mxCell>
        </object>
        <object label="Connection" PipingConnector="Y" LabelConnector="N" SignalConnector="N" Direction="0" AuxiliaryConnector="N" id="idT_if2Ht7NSnfdT7zC2-1">
          <mxCell style="vsdxID=1407;fillColor=none;gradientColor=none;shape=stencil(rVFbDsIgEDwNnyQU4glqvcfGblsilmZBS28vZGMsxg9j/JvZmX1kR5g2TLCg0CpE8hdcbR8nYY5CaztPSDZmJEwnTDt4wpH8be6ZL1CcBV39vUxI3KdKh1YbswPTEzuBzlmiVGmKau9zUKM+jlJJQrJBko8QrZ+rrQ5oRJnXyMHBWElhRVx25ebnw/5zVvPFWRm83jxY5zilvf4eSy5xpKZ7AA==);strokeColor=#00ff00;strokeWidth=1;points=[[0.5,0.5,0,0,0]];labelBackgroundColor=none;rounded=0;html=1;whiteSpace=wrap;aspect=fixed;noLabel=1;snapToPoint=1;container=0;fontSize=16;" vertex="1" parent="22vkG-h5v2N9dKBLQ-ZE-124">
            <mxGeometry x="1018" y="425" width="12" height="12" as="geometry" />
          </mxCell>
        </object>
        <mxCell id="22vkG-h5v2N9dKBLQ-ZE-136" value="Origo" style="" parent="22vkG-h5v2N9dKBLQ-ZE-0" />
        <object label="origo" id="8YAzbTfXJD2NZginxdfb-59">
          <mxCell style="vsdxID=1407;fillColor=none;gradientColor=none;shape=stencil(rVFbDsIgEDwNnyQU4glqvcfGblsilmZBS28vZGMsxg9j/JvZmX1kR5g2TLCg0CpE8hdcbR8nYY5CaztPSDZmJEwnTDt4wpH8be6ZL1CcBV39vUxI3KdKh1YbswPTEzuBzlmiVGmKau9zUKM+jlJJQrJBko8QrZ+rrQ5oRJnXyMHBWElhRVx25ebnw/5zVvPFWRm83jxY5zilvf4eSy5xpKZ7AA==);strokeColor=#ff0000;strokeWidth=1;points=[[0.5,0.5,0,0,0]];labelBackgroundColor=none;rounded=0;html=1;whiteSpace=wrap;aspect=fixed;noLabel=1;snapToPoint=1;" parent="22vkG-h5v2N9dKBLQ-ZE-136" vertex="1">
            <mxGeometry x="252" y="332" width="8" height="8" as="geometry" />
          </mxCell>
        </object>
      </root>
    </mxGraphModel>
  </diagram>
</mxfile>
